<?xml version="1.0" encoding="UTF-8" standalone="no"?>
<!DOCTYPE svg PUBLIC "-//W3C//DTD SVG 1.1//EN" "http://www.w3.org/Graphics/SVG/1.1/DTD/svg11.dtd">
<svg width="100%" height="100%" viewBox="0 0 1050 1050" version="1.1" xmlns="http://www.w3.org/2000/svg" xmlns:xlink="http://www.w3.org/1999/xlink" xml:space="preserve" xmlns:serif="http://www.serif.com/" style="fill-rule:evenodd;clip-rule:evenodd;stroke-linecap:square;stroke-miterlimit:1;">
    <g id="Logo" transform="matrix(0.871202,0,0,0.871202,-257.978,69.6877)">
        <g id="Cube" transform="matrix(1.38033,0,0,1.38033,130.66,132.68)">
            <path d="M642.479,180.908L700.957,282.522" style="fill:none;stroke:#d44eb5;stroke-width:11.09px;"/>
            <path d="M700.957,282.522L818.697,282.317" style="fill:none;stroke:#d44eb5;stroke-width:11.09px;"/>
            <path d="M700.957,282.522L642.181,384.584" style="fill:none;stroke:#d44eb5;stroke-width:11.09px;"/>
            <g id="Hexagon-Outline" serif:id="Hexagon Outline" transform="matrix(4.64563e-17,-0.758689,0.819987,5.02097e-17,233.965,1149.33)">
                <path d="M1142.45,416.841L1285.13,493.062L1285.13,645.503L1142.45,721.724L999.761,645.503L999.761,493.062L1142.45,416.841Z" style="fill:#d44eb5;fill-opacity:0;stroke:#d44eb5;stroke-width:14.04px;stroke-linecap:round;stroke-miterlimit:1.5;"/>
            </g>
            <g id="Diamond" transform="matrix(0.52964,0,0,0.604774,247.074,-25.9903)">
                <path d="M738.666,380.033L824.605,510.24L738.666,640.448L652.727,510.24L738.666,380.033Z" style="fill:#d44eb5;"/>
            </g>
        </g>
        <g id="Left-Bottom-Hexagon" serif:id="Left Bottom Hexagon" transform="matrix(6.48261e-17,-1.05869,1.05608,6.4666e-17,277.147,1339.82)">
            <path d="M555.09,149.471L771.864,274.936L771.864,525.864L555.09,651.329L338.316,525.864L338.316,274.936L555.09,149.471Z" style="fill:none;stroke:#7480ce;stroke-width:50.66px;stroke-linecap:round;stroke-miterlimit:1.5;"/>
        </g>
        <g id="Right-Hexagon" serif:id="Right Hexagon" transform="matrix(6.48261e-17,-1.05869,1.05608,6.4666e-17,674.625,1110.24)">
            <path d="M555.09,149.471L771.864,274.936L771.864,525.864L555.09,651.329L338.316,525.864L338.316,274.936L555.09,149.471Z" style="fill:none;stroke:#7480ce;stroke-width:50.66px;stroke-linecap:round;stroke-miterlimit:1.5;"/>
        </g>
        <g id="Left-Top-Hexagon" serif:id="Left Top Hexagon" transform="matrix(1.66533e-16,-1.05869,1.05608,1.11022e-16,277.136,880.773)">
            <path d="M555.09,149.471L771.864,274.936L771.864,525.864L555.09,651.329L338.316,525.864L338.316,274.936L555.09,149.471Z" style="fill:none;stroke:#7480ce;stroke-width:50.66px;stroke-linecap:round;stroke-miterlimit:1.5;"/>
        </g>
    </g>
</svg>
